%TF.GenerationSoftware,KiCad,Pcbnew,7.0.8*%
%TF.CreationDate,2023-10-24T12:55:46-07:00*%
%TF.ProjectId,VCO Front Plate,56434f20-4672-46f6-9e74-20506c617465,rev?*%
%TF.SameCoordinates,Original*%
%TF.FileFunction,Profile,NP*%
%FSLAX46Y46*%
G04 Gerber Fmt 4.6, Leading zero omitted, Abs format (unit mm)*
G04 Created by KiCad (PCBNEW 7.0.8) date 2023-10-24 12:55:46*
%MOMM*%
%LPD*%
G01*
G04 APERTURE LIST*
%TA.AperFunction,Profile*%
%ADD10C,0.050000*%
%TD*%
%TA.AperFunction,Profile*%
%ADD11C,0.200000*%
%TD*%
G04 APERTURE END LIST*
D10*
X92930000Y-167500000D02*
G75*
G03*
X92930000Y-170700000I0J-1600000D01*
G01*
X92930000Y-170700000D02*
X95430000Y-170700000D01*
X92930000Y-167500000D02*
X95430000Y-167500000D01*
X95430000Y-170700000D02*
G75*
G03*
X95430000Y-167500000I0J1600000D01*
G01*
X120450000Y-167490000D02*
X122950000Y-167490000D01*
X120450000Y-170690000D02*
X122950000Y-170690000D01*
X120450000Y-167490000D02*
G75*
G03*
X120450000Y-170690000I0J-1600000D01*
G01*
X122950000Y-170690000D02*
G75*
G03*
X122950000Y-167490000I0J1600000D01*
G01*
X120440000Y-45000000D02*
X122940000Y-45000000D01*
X122940000Y-48200000D02*
G75*
G03*
X122940000Y-45000000I0J1600000D01*
G01*
X120440000Y-48200000D02*
X122940000Y-48200000D01*
X120440000Y-45000000D02*
G75*
G03*
X120440000Y-48200000I0J-1600000D01*
G01*
X94700000Y-48200000D02*
G75*
G03*
X94700000Y-45000000I0J1600000D01*
G01*
X92200000Y-48200000D02*
X94700000Y-48200000D01*
X92200000Y-45000000D02*
X94700000Y-45000000D01*
X92200000Y-45000000D02*
G75*
G03*
X92200000Y-48200000I0J-1600000D01*
G01*
D11*
X87950041Y-172097979D02*
X127950037Y-172097979D01*
X87950041Y-43600000D02*
X87950041Y-172097979D01*
X124119993Y-134080000D02*
G75*
G03*
X124119993Y-134080000I-3099993J0D01*
G01*
X87950041Y-43597983D02*
X127950037Y-43597983D01*
X98050020Y-151130000D02*
G75*
G03*
X98050020Y-151130000I-3099994J0D01*
G01*
X98099994Y-118530000D02*
G75*
G03*
X98099994Y-118530000I-3099994J0D01*
G01*
X98099994Y-134080000D02*
G75*
G03*
X98099994Y-134080000I-3099994J0D01*
G01*
X124099993Y-118530000D02*
G75*
G03*
X124099993Y-118530000I-3099993J0D01*
G01*
X111100000Y-84750000D02*
G75*
G03*
X111100000Y-84750000I-3100000J0D01*
G01*
X124100000Y-97750000D02*
G75*
G03*
X124100000Y-97750000I-3100000J0D01*
G01*
X98100000Y-97750000D02*
G75*
G03*
X98100000Y-97750000I-3100000J0D01*
G01*
X127950037Y-43597983D02*
X127950037Y-172097979D01*
X111599993Y-63750000D02*
G75*
G03*
X111599993Y-63750000I-3599993J0D01*
G01*
X87950041Y-43597983D02*
X87950041Y-43597983D01*
X124069968Y-151170000D02*
G75*
G03*
X124069968Y-151170000I-3099993J0D01*
G01*
X111049994Y-151130000D02*
G75*
G03*
X111049994Y-151130000I-3099994J0D01*
G01*
M02*
