%TF.GenerationSoftware,KiCad,Pcbnew,7.0.8*%
%TF.CreationDate,2023-10-24T12:55:46-07:00*%
%TF.ProjectId,VCO Front Plate,56434f20-4672-46f6-9e74-20506c617465,rev?*%
%TF.SameCoordinates,Original*%
%TF.FileFunction,Copper,L1,Top*%
%TF.FilePolarity,Positive*%
%FSLAX46Y46*%
G04 Gerber Fmt 4.6, Leading zero omitted, Abs format (unit mm)*
G04 Created by KiCad (PCBNEW 7.0.8) date 2023-10-24 12:55:46*
%MOMM*%
%LPD*%
G01*
G04 APERTURE LIST*
G04 APERTURE END LIST*
%TA.AperFunction,NonConductor*%
G36*
X127791658Y-43718485D02*
G01*
X127838151Y-43772141D01*
X127849537Y-43824483D01*
X127849537Y-171871479D01*
X127829535Y-171939600D01*
X127775879Y-171986093D01*
X127723537Y-171997479D01*
X88176541Y-171997479D01*
X88108420Y-171977477D01*
X88061927Y-171923821D01*
X88050541Y-171871479D01*
X88050541Y-169100000D01*
X91224732Y-169100000D01*
X91243778Y-169354160D01*
X91300491Y-169602635D01*
X91393605Y-169839884D01*
X91393608Y-169839892D01*
X91521038Y-170060608D01*
X91679953Y-170259881D01*
X91817746Y-170387732D01*
X91866783Y-170433232D01*
X91866789Y-170433236D01*
X92077356Y-170576799D01*
X92077363Y-170576803D01*
X92077366Y-170576805D01*
X92124493Y-170599500D01*
X92306991Y-170687387D01*
X92307004Y-170687392D01*
X92550531Y-170762510D01*
X92550534Y-170762510D01*
X92550542Y-170762513D01*
X92802565Y-170800500D01*
X92802570Y-170800500D01*
X95557430Y-170800500D01*
X95557435Y-170800500D01*
X95809458Y-170762513D01*
X95809468Y-170762510D01*
X96052995Y-170687392D01*
X96052997Y-170687390D01*
X96053004Y-170687389D01*
X96282634Y-170576805D01*
X96493217Y-170433232D01*
X96680050Y-170259877D01*
X96838959Y-170060612D01*
X96966393Y-169839888D01*
X97059508Y-169602637D01*
X97116222Y-169354157D01*
X97135268Y-169100000D01*
X97134519Y-169090000D01*
X118744732Y-169090000D01*
X118763778Y-169344160D01*
X118820491Y-169592635D01*
X118913605Y-169829884D01*
X118913608Y-169829892D01*
X119041038Y-170050608D01*
X119199953Y-170249881D01*
X119337746Y-170377732D01*
X119386783Y-170423232D01*
X119386789Y-170423236D01*
X119597356Y-170566799D01*
X119597363Y-170566803D01*
X119597366Y-170566805D01*
X119644493Y-170589500D01*
X119826991Y-170677387D01*
X119827004Y-170677392D01*
X120070531Y-170752510D01*
X120070534Y-170752510D01*
X120070542Y-170752513D01*
X120322565Y-170790500D01*
X120322570Y-170790500D01*
X123077430Y-170790500D01*
X123077435Y-170790500D01*
X123329458Y-170752513D01*
X123329468Y-170752510D01*
X123572995Y-170677392D01*
X123572997Y-170677390D01*
X123573004Y-170677389D01*
X123802634Y-170566805D01*
X124013217Y-170423232D01*
X124200050Y-170249877D01*
X124358959Y-170050612D01*
X124422676Y-169940250D01*
X124486391Y-169829892D01*
X124486393Y-169829888D01*
X124579508Y-169592637D01*
X124636222Y-169344157D01*
X124655268Y-169090000D01*
X124636222Y-168835843D01*
X124579508Y-168587363D01*
X124486393Y-168350112D01*
X124486392Y-168350111D01*
X124486391Y-168350107D01*
X124358961Y-168129391D01*
X124279454Y-168029693D01*
X124200050Y-167930123D01*
X124200049Y-167930122D01*
X124200046Y-167930118D01*
X124013222Y-167756773D01*
X124013217Y-167756768D01*
X124013210Y-167756763D01*
X123802643Y-167613200D01*
X123802636Y-167613196D01*
X123573008Y-167502612D01*
X123572995Y-167502607D01*
X123329468Y-167427489D01*
X123329458Y-167427487D01*
X123077435Y-167389500D01*
X122965917Y-167389500D01*
X120476929Y-167389500D01*
X120450000Y-167389500D01*
X120322565Y-167389500D01*
X120112545Y-167421155D01*
X120070541Y-167427487D01*
X120070531Y-167427489D01*
X119827004Y-167502607D01*
X119826991Y-167502612D01*
X119597363Y-167613196D01*
X119597356Y-167613200D01*
X119386789Y-167756763D01*
X119386777Y-167756773D01*
X119199953Y-167930118D01*
X119041038Y-168129391D01*
X118913608Y-168350107D01*
X118913605Y-168350115D01*
X118820491Y-168587364D01*
X118763778Y-168835839D01*
X118744732Y-169090000D01*
X97134519Y-169090000D01*
X97116222Y-168845843D01*
X97059508Y-168597363D01*
X96966393Y-168360112D01*
X96966392Y-168360111D01*
X96966391Y-168360107D01*
X96838961Y-168139391D01*
X96830986Y-168129391D01*
X96680050Y-167940123D01*
X96680049Y-167940122D01*
X96680046Y-167940118D01*
X96493222Y-167766773D01*
X96493217Y-167766768D01*
X96493210Y-167766763D01*
X96282643Y-167623200D01*
X96282636Y-167623196D01*
X96053008Y-167512612D01*
X96052995Y-167512607D01*
X95809468Y-167437489D01*
X95809458Y-167437487D01*
X95557435Y-167399500D01*
X95445917Y-167399500D01*
X92956929Y-167399500D01*
X92930000Y-167399500D01*
X92802565Y-167399500D01*
X92592545Y-167431155D01*
X92550541Y-167437487D01*
X92550531Y-167437489D01*
X92307004Y-167512607D01*
X92306991Y-167512612D01*
X92077363Y-167623196D01*
X92077356Y-167623200D01*
X91866789Y-167766763D01*
X91866777Y-167766773D01*
X91679953Y-167940118D01*
X91521038Y-168139391D01*
X91393608Y-168360107D01*
X91393605Y-168360115D01*
X91300491Y-168597364D01*
X91243778Y-168845839D01*
X91224732Y-169100000D01*
X88050541Y-169100000D01*
X88050541Y-151130000D01*
X91744489Y-151130000D01*
X91764644Y-151488902D01*
X91824857Y-151843292D01*
X91924374Y-152188726D01*
X92061932Y-152520819D01*
X92061937Y-152520830D01*
X92061944Y-152520842D01*
X92235813Y-152835438D01*
X92235817Y-152835445D01*
X92443833Y-153128616D01*
X92443838Y-153128623D01*
X92479581Y-153168619D01*
X92683369Y-153396657D01*
X92839253Y-153535964D01*
X92951402Y-153636187D01*
X92951409Y-153636192D01*
X93244580Y-153844208D01*
X93244587Y-153844212D01*
X93316961Y-153884211D01*
X93559196Y-154018089D01*
X93891304Y-154155653D01*
X94236727Y-154255167D01*
X94591120Y-154315381D01*
X94950026Y-154335537D01*
X95308932Y-154315381D01*
X95663325Y-154255167D01*
X96008748Y-154155653D01*
X96340856Y-154018089D01*
X96655475Y-153844206D01*
X96948646Y-153636190D01*
X97216683Y-153396657D01*
X97456216Y-153128620D01*
X97664232Y-152835449D01*
X97838115Y-152520830D01*
X97975679Y-152188722D01*
X98075193Y-151843299D01*
X98135407Y-151488906D01*
X98155563Y-151130000D01*
X104744463Y-151130000D01*
X104764618Y-151488902D01*
X104824831Y-151843292D01*
X104924348Y-152188726D01*
X105061906Y-152520819D01*
X105061911Y-152520830D01*
X105061918Y-152520842D01*
X105235787Y-152835438D01*
X105235791Y-152835445D01*
X105443807Y-153128616D01*
X105443812Y-153128623D01*
X105479555Y-153168619D01*
X105683343Y-153396657D01*
X105839227Y-153535964D01*
X105951376Y-153636187D01*
X105951383Y-153636192D01*
X106244554Y-153844208D01*
X106244561Y-153844212D01*
X106316935Y-153884211D01*
X106559170Y-154018089D01*
X106891278Y-154155653D01*
X107236701Y-154255167D01*
X107591094Y-154315381D01*
X107950000Y-154335537D01*
X108308906Y-154315381D01*
X108663299Y-154255167D01*
X109008722Y-154155653D01*
X109340830Y-154018089D01*
X109655449Y-153844206D01*
X109948620Y-153636190D01*
X110216657Y-153396657D01*
X110456190Y-153128620D01*
X110664206Y-152835449D01*
X110838089Y-152520830D01*
X110975653Y-152188722D01*
X111075167Y-151843299D01*
X111135381Y-151488906D01*
X111153291Y-151170000D01*
X117764439Y-151170000D01*
X117784594Y-151528902D01*
X117784594Y-151528903D01*
X117844806Y-151883291D01*
X117944324Y-152228725D01*
X118065318Y-152520830D01*
X118081887Y-152560830D01*
X118081894Y-152560842D01*
X118255763Y-152875437D01*
X118255767Y-152875444D01*
X118463783Y-153168615D01*
X118463788Y-153168622D01*
X118567376Y-153284536D01*
X118703319Y-153436656D01*
X118859203Y-153575963D01*
X118971352Y-153676186D01*
X118971355Y-153676188D01*
X118971356Y-153676189D01*
X119264498Y-153884184D01*
X119264530Y-153884207D01*
X119264537Y-153884211D01*
X119336862Y-153924183D01*
X119579145Y-154058088D01*
X119911254Y-154195652D01*
X120256676Y-154295167D01*
X120611069Y-154355380D01*
X120969975Y-154375536D01*
X121328881Y-154355380D01*
X121683274Y-154295167D01*
X122028696Y-154195652D01*
X122360805Y-154058088D01*
X122675423Y-153884205D01*
X122968594Y-153676189D01*
X123236631Y-153436656D01*
X123476164Y-153168619D01*
X123684180Y-152875448D01*
X123858063Y-152560830D01*
X123995627Y-152228721D01*
X124095142Y-151883299D01*
X124155355Y-151528906D01*
X124175511Y-151170000D01*
X124155355Y-150811094D01*
X124095142Y-150456701D01*
X123995627Y-150111279D01*
X123858063Y-149779170D01*
X123748046Y-149580109D01*
X123684186Y-149464562D01*
X123684182Y-149464555D01*
X123526245Y-149241963D01*
X123476164Y-149171381D01*
X123476163Y-149171380D01*
X123476161Y-149171377D01*
X123312506Y-148988248D01*
X123236631Y-148903344D01*
X123035986Y-148724036D01*
X122968597Y-148663813D01*
X122968590Y-148663808D01*
X122675419Y-148455792D01*
X122675412Y-148455788D01*
X122450637Y-148331560D01*
X122360805Y-148281912D01*
X122360798Y-148281909D01*
X122360794Y-148281907D01*
X122028700Y-148144349D01*
X121889850Y-148104347D01*
X121683274Y-148044833D01*
X121683271Y-148044832D01*
X121683266Y-148044831D01*
X121328877Y-147984619D01*
X120969975Y-147964464D01*
X120611072Y-147984619D01*
X120611071Y-147984619D01*
X120256683Y-148044831D01*
X119911249Y-148144349D01*
X119579155Y-148281907D01*
X119579132Y-148281919D01*
X119264537Y-148455788D01*
X119264530Y-148455792D01*
X118971359Y-148663808D01*
X118971352Y-148663813D01*
X118703319Y-148903344D01*
X118463788Y-149171377D01*
X118463783Y-149171384D01*
X118255767Y-149464555D01*
X118255763Y-149464562D01*
X118081894Y-149779157D01*
X118081882Y-149779180D01*
X117944324Y-150111274D01*
X117844806Y-150456708D01*
X117784594Y-150811096D01*
X117784594Y-150811097D01*
X117764439Y-151170000D01*
X111153291Y-151170000D01*
X111155537Y-151130000D01*
X111135381Y-150771094D01*
X111075167Y-150416701D01*
X110975653Y-150071278D01*
X110838089Y-149739170D01*
X110695819Y-149481751D01*
X110664212Y-149424561D01*
X110664208Y-149424554D01*
X110506271Y-149201962D01*
X110456190Y-149131380D01*
X110456189Y-149131379D01*
X110456187Y-149131376D01*
X110292532Y-148948247D01*
X110216657Y-148863343D01*
X110060773Y-148724036D01*
X109948623Y-148623812D01*
X109948616Y-148623807D01*
X109655445Y-148415791D01*
X109655438Y-148415787D01*
X109413198Y-148281907D01*
X109340830Y-148241911D01*
X109340823Y-148241908D01*
X109340819Y-148241906D01*
X109008726Y-148104348D01*
X108663292Y-148004831D01*
X108308902Y-147944618D01*
X107950000Y-147924463D01*
X107591097Y-147944618D01*
X107236707Y-148004831D01*
X106891273Y-148104348D01*
X106559180Y-148241906D01*
X106559157Y-148241918D01*
X106244561Y-148415787D01*
X106244554Y-148415791D01*
X105951383Y-148623807D01*
X105951376Y-148623812D01*
X105683343Y-148863343D01*
X105443812Y-149131376D01*
X105443807Y-149131383D01*
X105235791Y-149424554D01*
X105235787Y-149424561D01*
X105061918Y-149739157D01*
X105061906Y-149739180D01*
X104924348Y-150071273D01*
X104824831Y-150416707D01*
X104764618Y-150771097D01*
X104744463Y-151130000D01*
X98155563Y-151130000D01*
X98135407Y-150771094D01*
X98075193Y-150416701D01*
X97975679Y-150071278D01*
X97838115Y-149739170D01*
X97695845Y-149481751D01*
X97664238Y-149424561D01*
X97664234Y-149424554D01*
X97506297Y-149201962D01*
X97456216Y-149131380D01*
X97456215Y-149131379D01*
X97456213Y-149131376D01*
X97292558Y-148948247D01*
X97216683Y-148863343D01*
X97060799Y-148724036D01*
X96948649Y-148623812D01*
X96948642Y-148623807D01*
X96655471Y-148415791D01*
X96655464Y-148415787D01*
X96413224Y-148281907D01*
X96340856Y-148241911D01*
X96340849Y-148241908D01*
X96340845Y-148241906D01*
X96008752Y-148104348D01*
X95663318Y-148004831D01*
X95308928Y-147944618D01*
X94950026Y-147924463D01*
X94591123Y-147944618D01*
X94236733Y-148004831D01*
X93891299Y-148104348D01*
X93559206Y-148241906D01*
X93559183Y-148241918D01*
X93244587Y-148415787D01*
X93244580Y-148415791D01*
X92951409Y-148623807D01*
X92951402Y-148623812D01*
X92683369Y-148863343D01*
X92443838Y-149131376D01*
X92443833Y-149131383D01*
X92235817Y-149424554D01*
X92235813Y-149424561D01*
X92061944Y-149739157D01*
X92061932Y-149739180D01*
X91924374Y-150071273D01*
X91824857Y-150416707D01*
X91764644Y-150771097D01*
X91744489Y-151130000D01*
X88050541Y-151130000D01*
X88050541Y-134080000D01*
X91794463Y-134080000D01*
X91814618Y-134438902D01*
X91874831Y-134793292D01*
X91974348Y-135138726D01*
X91999729Y-135200000D01*
X92111911Y-135470830D01*
X92111918Y-135470842D01*
X92285787Y-135785438D01*
X92285791Y-135785445D01*
X92493807Y-136078616D01*
X92493812Y-136078623D01*
X92597400Y-136194537D01*
X92733343Y-136346657D01*
X92889226Y-136485963D01*
X93001376Y-136586187D01*
X93001379Y-136586189D01*
X93001380Y-136586190D01*
X93130263Y-136677637D01*
X93294554Y-136794208D01*
X93294561Y-136794212D01*
X93366884Y-136834183D01*
X93609170Y-136968089D01*
X93941278Y-137105653D01*
X94286701Y-137205167D01*
X94641094Y-137265381D01*
X95000000Y-137285537D01*
X95358906Y-137265381D01*
X95713299Y-137205167D01*
X96058722Y-137105653D01*
X96390830Y-136968089D01*
X96705449Y-136794206D01*
X96998620Y-136586190D01*
X97266657Y-136346657D01*
X97506190Y-136078620D01*
X97714206Y-135785449D01*
X97733798Y-135750000D01*
X106875000Y-135750000D01*
X107150000Y-136225000D01*
X109049999Y-136225000D01*
X109050000Y-136225000D01*
X109350000Y-135750000D01*
X109050000Y-135200000D01*
X107125000Y-135200000D01*
X107124999Y-135200000D01*
X106875000Y-135749999D01*
X106875000Y-135750000D01*
X97733798Y-135750000D01*
X97888089Y-135470830D01*
X98025653Y-135138722D01*
X98125167Y-134793299D01*
X98185381Y-134438906D01*
X98205537Y-134080000D01*
X98195428Y-133900001D01*
X105049999Y-133900001D01*
X105399998Y-134399999D01*
X105399999Y-134400000D01*
X105400000Y-134400000D01*
X110800000Y-134400000D01*
X111040000Y-134080000D01*
X117814464Y-134080000D01*
X117834619Y-134438902D01*
X117834619Y-134438903D01*
X117894831Y-134793291D01*
X117994349Y-135138725D01*
X118113413Y-135426170D01*
X118131912Y-135470830D01*
X118131919Y-135470842D01*
X118305788Y-135785437D01*
X118305792Y-135785444D01*
X118513808Y-136078615D01*
X118513813Y-136078622D01*
X118617401Y-136194536D01*
X118753344Y-136346656D01*
X118909228Y-136485963D01*
X119021377Y-136586186D01*
X119021380Y-136586188D01*
X119021381Y-136586189D01*
X119021384Y-136586191D01*
X119314555Y-136794207D01*
X119314562Y-136794211D01*
X119430109Y-136858071D01*
X119629170Y-136968088D01*
X119961279Y-137105652D01*
X120306701Y-137205167D01*
X120661094Y-137265380D01*
X121020000Y-137285536D01*
X121378906Y-137265380D01*
X121733299Y-137205167D01*
X122078721Y-137105652D01*
X122410830Y-136968088D01*
X122725448Y-136794205D01*
X123018619Y-136586189D01*
X123286656Y-136346656D01*
X123526189Y-136078619D01*
X123734205Y-135785448D01*
X123908088Y-135470830D01*
X124045652Y-135138721D01*
X124145167Y-134793299D01*
X124205380Y-134438906D01*
X124225536Y-134080000D01*
X124205380Y-133721094D01*
X124145167Y-133366701D01*
X124045652Y-133021279D01*
X123908088Y-132689170D01*
X123798071Y-132490109D01*
X123734211Y-132374562D01*
X123734207Y-132374555D01*
X123576270Y-132151963D01*
X123526189Y-132081381D01*
X123526188Y-132081380D01*
X123526186Y-132081377D01*
X123362530Y-131898247D01*
X123286656Y-131813344D01*
X123130771Y-131674036D01*
X123018622Y-131573813D01*
X123018615Y-131573808D01*
X122725444Y-131365792D01*
X122725437Y-131365788D01*
X122500662Y-131241560D01*
X122410830Y-131191912D01*
X122410823Y-131191909D01*
X122410819Y-131191907D01*
X122078725Y-131054349D01*
X121963580Y-131021176D01*
X121733299Y-130954833D01*
X121733296Y-130954832D01*
X121733291Y-130954831D01*
X121378902Y-130894619D01*
X121020000Y-130874464D01*
X120661097Y-130894619D01*
X120661096Y-130894619D01*
X120306708Y-130954831D01*
X119961274Y-131054349D01*
X119629180Y-131191907D01*
X119629157Y-131191919D01*
X119314562Y-131365788D01*
X119314555Y-131365792D01*
X119021384Y-131573808D01*
X119021377Y-131573813D01*
X118753344Y-131813344D01*
X118513813Y-132081377D01*
X118513808Y-132081384D01*
X118305792Y-132374555D01*
X118305788Y-132374562D01*
X118131919Y-132689157D01*
X118131907Y-132689180D01*
X117994349Y-133021274D01*
X117894831Y-133366708D01*
X117834619Y-133721096D01*
X117834619Y-133721097D01*
X117814464Y-134080000D01*
X111040000Y-134080000D01*
X111175000Y-133900000D01*
X111174999Y-133899999D01*
X110775002Y-133375001D01*
X110775000Y-133375000D01*
X105400000Y-133375000D01*
X105399999Y-133375000D01*
X105049999Y-133899999D01*
X105049999Y-133900001D01*
X98195428Y-133900001D01*
X98185381Y-133721094D01*
X98125167Y-133366701D01*
X98025653Y-133021278D01*
X97888089Y-132689170D01*
X97745819Y-132431751D01*
X97714212Y-132374561D01*
X97714208Y-132374554D01*
X97556271Y-132151962D01*
X97506190Y-132081380D01*
X97506189Y-132081379D01*
X97506187Y-132081376D01*
X97500489Y-132075000D01*
X102800000Y-132075000D01*
X103250000Y-132575000D01*
X113049999Y-132575000D01*
X113050000Y-132575000D01*
X113400000Y-132100000D01*
X113399999Y-132099999D01*
X113400000Y-132099999D01*
X113050000Y-131525000D01*
X103250000Y-131525000D01*
X102800000Y-132075000D01*
X97500489Y-132075000D01*
X97418775Y-131983563D01*
X97266657Y-131813343D01*
X97110773Y-131674036D01*
X96998623Y-131573812D01*
X96998616Y-131573807D01*
X96705445Y-131365791D01*
X96705438Y-131365787D01*
X96480665Y-131241560D01*
X96390830Y-131191911D01*
X96390823Y-131191908D01*
X96390819Y-131191906D01*
X96058726Y-131054348D01*
X95713292Y-130954831D01*
X95358902Y-130894618D01*
X95000000Y-130874463D01*
X94641097Y-130894618D01*
X94286707Y-130954831D01*
X93941273Y-131054348D01*
X93609180Y-131191906D01*
X93609172Y-131191910D01*
X93609170Y-131191911D01*
X93609162Y-131191914D01*
X93609157Y-131191918D01*
X93294561Y-131365787D01*
X93294554Y-131365791D01*
X93001383Y-131573807D01*
X93001376Y-131573812D01*
X92733343Y-131813343D01*
X92493812Y-132081376D01*
X92493807Y-132081383D01*
X92285791Y-132374554D01*
X92285787Y-132374561D01*
X92111918Y-132689157D01*
X92111906Y-132689180D01*
X91974348Y-133021273D01*
X91874831Y-133366707D01*
X91814618Y-133721097D01*
X91794463Y-134080000D01*
X88050541Y-134080000D01*
X88050541Y-130250000D01*
X101625000Y-130250000D01*
X102100000Y-130775000D01*
X102100001Y-130775000D01*
X114150000Y-130775000D01*
X114150002Y-130774998D01*
X114549999Y-130250001D01*
X114550000Y-130250000D01*
X114150000Y-129700000D01*
X102100000Y-129700000D01*
X101625000Y-130249999D01*
X101625000Y-130250000D01*
X88050541Y-130250000D01*
X88050541Y-128450000D01*
X102799999Y-128450000D01*
X103250000Y-128950000D01*
X112974999Y-128950000D01*
X112975000Y-128950000D01*
X113400000Y-128450000D01*
X113000000Y-127900000D01*
X103200000Y-127900000D01*
X102800000Y-128450000D01*
X102799999Y-128450000D01*
X88050541Y-128450000D01*
X88050541Y-126600000D01*
X105049999Y-126600000D01*
X105449997Y-127124998D01*
X105450000Y-127125000D01*
X110799999Y-127125000D01*
X110800000Y-127125000D01*
X111150000Y-126650000D01*
X110850000Y-126075000D01*
X105400000Y-126075000D01*
X105399998Y-126075000D01*
X105049999Y-126600000D01*
X88050541Y-126600000D01*
X88050541Y-124750000D01*
X106850000Y-124750000D01*
X107150000Y-125275000D01*
X107150001Y-125275000D01*
X109099999Y-125275000D01*
X109100000Y-125275000D01*
X109350000Y-124800000D01*
X109050000Y-124250000D01*
X107150000Y-124250000D01*
X106850000Y-124749998D01*
X106850000Y-124749999D01*
X106850000Y-124750000D01*
X88050541Y-124750000D01*
X88050541Y-118530000D01*
X91794463Y-118530000D01*
X91814618Y-118888902D01*
X91874831Y-119243292D01*
X91974348Y-119588726D01*
X92093412Y-119876170D01*
X92111911Y-119920830D01*
X92111918Y-119920842D01*
X92285787Y-120235438D01*
X92285791Y-120235445D01*
X92493807Y-120528616D01*
X92493812Y-120528623D01*
X92597400Y-120644537D01*
X92733343Y-120796657D01*
X92889226Y-120935963D01*
X93001376Y-121036187D01*
X93001379Y-121036189D01*
X93001380Y-121036190D01*
X93130263Y-121127637D01*
X93294554Y-121244208D01*
X93294561Y-121244212D01*
X93366884Y-121284183D01*
X93609170Y-121418089D01*
X93941278Y-121555653D01*
X94286701Y-121655167D01*
X94641094Y-121715381D01*
X95000000Y-121735537D01*
X95358906Y-121715381D01*
X95713299Y-121655167D01*
X96058722Y-121555653D01*
X96390830Y-121418089D01*
X96705449Y-121244206D01*
X96998620Y-121036190D01*
X97266657Y-120796657D01*
X97506190Y-120528620D01*
X97714206Y-120235449D01*
X97888089Y-119920830D01*
X98025653Y-119588722D01*
X98125167Y-119243299D01*
X98185381Y-118888906D01*
X98205537Y-118530000D01*
X117794464Y-118530000D01*
X117814619Y-118888902D01*
X117814619Y-118888903D01*
X117874831Y-119243291D01*
X117974349Y-119588725D01*
X118093413Y-119876170D01*
X118111912Y-119920830D01*
X118111919Y-119920842D01*
X118285788Y-120235437D01*
X118285792Y-120235444D01*
X118493808Y-120528615D01*
X118493813Y-120528622D01*
X118597401Y-120644536D01*
X118733344Y-120796656D01*
X118889228Y-120935963D01*
X119001377Y-121036186D01*
X119001380Y-121036188D01*
X119001381Y-121036189D01*
X119001384Y-121036191D01*
X119294555Y-121244207D01*
X119294562Y-121244211D01*
X119410109Y-121308071D01*
X119609170Y-121418088D01*
X119941279Y-121555652D01*
X120286701Y-121655167D01*
X120641094Y-121715380D01*
X121000000Y-121735536D01*
X121358906Y-121715380D01*
X121713299Y-121655167D01*
X122058721Y-121555652D01*
X122390830Y-121418088D01*
X122705448Y-121244205D01*
X122998619Y-121036189D01*
X123266656Y-120796656D01*
X123506189Y-120528619D01*
X123714205Y-120235448D01*
X123888088Y-119920830D01*
X124025652Y-119588721D01*
X124125167Y-119243299D01*
X124185380Y-118888906D01*
X124205536Y-118530000D01*
X124185380Y-118171094D01*
X124125167Y-117816701D01*
X124025652Y-117471279D01*
X123888088Y-117139170D01*
X123778071Y-116940109D01*
X123714211Y-116824562D01*
X123714207Y-116824555D01*
X123556270Y-116601963D01*
X123506189Y-116531381D01*
X123506188Y-116531380D01*
X123506186Y-116531377D01*
X123342530Y-116348247D01*
X123266656Y-116263344D01*
X123110771Y-116124036D01*
X122998622Y-116023813D01*
X122998615Y-116023808D01*
X122705444Y-115815792D01*
X122705437Y-115815788D01*
X122480662Y-115691560D01*
X122390830Y-115641912D01*
X122390823Y-115641909D01*
X122390819Y-115641907D01*
X122058725Y-115504349D01*
X121943580Y-115471176D01*
X121713299Y-115404833D01*
X121713296Y-115404832D01*
X121713291Y-115404831D01*
X121358902Y-115344619D01*
X121000000Y-115324464D01*
X120641097Y-115344619D01*
X120641096Y-115344619D01*
X120286708Y-115404831D01*
X119941274Y-115504349D01*
X119609180Y-115641907D01*
X119609157Y-115641919D01*
X119294562Y-115815788D01*
X119294555Y-115815792D01*
X119001384Y-116023808D01*
X119001377Y-116023813D01*
X118733344Y-116263344D01*
X118493813Y-116531377D01*
X118493808Y-116531384D01*
X118285792Y-116824555D01*
X118285788Y-116824562D01*
X118111919Y-117139157D01*
X118111907Y-117139180D01*
X117974349Y-117471274D01*
X117874831Y-117816708D01*
X117814619Y-118171096D01*
X117814619Y-118171097D01*
X117794464Y-118530000D01*
X98205537Y-118530000D01*
X98185381Y-118171094D01*
X98125167Y-117816701D01*
X98025653Y-117471278D01*
X97888089Y-117139170D01*
X97745819Y-116881751D01*
X97714212Y-116824561D01*
X97714208Y-116824554D01*
X97556271Y-116601962D01*
X97506190Y-116531380D01*
X97506189Y-116531379D01*
X97506187Y-116531376D01*
X97418775Y-116433563D01*
X97266657Y-116263343D01*
X97110773Y-116124036D01*
X96998623Y-116023812D01*
X96998616Y-116023807D01*
X96705445Y-115815791D01*
X96705438Y-115815787D01*
X96480665Y-115691560D01*
X96390830Y-115641911D01*
X96390823Y-115641908D01*
X96390819Y-115641906D01*
X96058726Y-115504348D01*
X95713292Y-115404831D01*
X95358902Y-115344618D01*
X95000000Y-115324463D01*
X94641097Y-115344618D01*
X94286707Y-115404831D01*
X93941273Y-115504348D01*
X93609180Y-115641906D01*
X93609172Y-115641910D01*
X93609170Y-115641911D01*
X93609162Y-115641914D01*
X93609157Y-115641918D01*
X93294561Y-115815787D01*
X93294554Y-115815791D01*
X93001383Y-116023807D01*
X93001376Y-116023812D01*
X92733343Y-116263343D01*
X92493812Y-116531376D01*
X92493807Y-116531383D01*
X92285791Y-116824554D01*
X92285787Y-116824561D01*
X92111918Y-117139157D01*
X92111906Y-117139180D01*
X91974348Y-117471273D01*
X91874831Y-117816707D01*
X91814618Y-118171097D01*
X91794463Y-118530000D01*
X88050541Y-118530000D01*
X88050541Y-97750000D01*
X91794457Y-97750000D01*
X91814612Y-98108903D01*
X91874825Y-98463293D01*
X91974342Y-98808728D01*
X92093407Y-99096173D01*
X92111906Y-99140833D01*
X92111913Y-99140845D01*
X92285784Y-99455444D01*
X92285786Y-99455447D01*
X92285789Y-99455452D01*
X92493806Y-99748623D01*
X92733339Y-100016661D01*
X93001377Y-100256194D01*
X93294548Y-100464211D01*
X93609167Y-100638094D01*
X93941276Y-100775659D01*
X94286700Y-100875173D01*
X94641093Y-100935387D01*
X95000000Y-100955543D01*
X95358907Y-100935387D01*
X95713300Y-100875173D01*
X96058724Y-100775659D01*
X96390833Y-100638094D01*
X96705452Y-100464211D01*
X96998623Y-100256194D01*
X97266661Y-100016661D01*
X97506194Y-99748623D01*
X97714211Y-99455452D01*
X97888094Y-99140833D01*
X98025659Y-98808724D01*
X98125173Y-98463300D01*
X98185387Y-98108907D01*
X98205543Y-97750000D01*
X117794457Y-97750000D01*
X117814612Y-98108903D01*
X117874825Y-98463293D01*
X117974342Y-98808728D01*
X118093407Y-99096173D01*
X118111906Y-99140833D01*
X118111913Y-99140845D01*
X118285784Y-99455444D01*
X118285786Y-99455447D01*
X118285789Y-99455452D01*
X118493806Y-99748623D01*
X118733339Y-100016661D01*
X119001377Y-100256194D01*
X119294548Y-100464211D01*
X119609167Y-100638094D01*
X119941276Y-100775659D01*
X120286700Y-100875173D01*
X120641093Y-100935387D01*
X121000000Y-100955543D01*
X121358907Y-100935387D01*
X121713300Y-100875173D01*
X122058724Y-100775659D01*
X122390833Y-100638094D01*
X122705452Y-100464211D01*
X122998623Y-100256194D01*
X123266661Y-100016661D01*
X123506194Y-99748623D01*
X123714211Y-99455452D01*
X123888094Y-99140833D01*
X124025659Y-98808724D01*
X124125173Y-98463300D01*
X124185387Y-98108907D01*
X124205543Y-97750000D01*
X124185387Y-97391093D01*
X124125173Y-97036700D01*
X124025659Y-96691276D01*
X123888094Y-96359167D01*
X123714211Y-96044548D01*
X123506194Y-95751377D01*
X123266661Y-95483339D01*
X122998623Y-95243806D01*
X122705452Y-95035789D01*
X122705447Y-95035786D01*
X122705444Y-95035784D01*
X122417257Y-94876510D01*
X122390833Y-94861906D01*
X122390826Y-94861903D01*
X122390822Y-94861901D01*
X122058728Y-94724342D01*
X121713293Y-94624825D01*
X121358903Y-94564612D01*
X121000000Y-94544457D01*
X120641096Y-94564612D01*
X120286706Y-94624825D01*
X119941271Y-94724342D01*
X119609177Y-94861901D01*
X119609154Y-94861913D01*
X119294555Y-95035784D01*
X119001373Y-95243809D01*
X118733339Y-95483339D01*
X118493809Y-95751373D01*
X118285784Y-96044555D01*
X118111913Y-96359154D01*
X118111901Y-96359177D01*
X117974342Y-96691271D01*
X117874825Y-97036706D01*
X117814612Y-97391096D01*
X117794457Y-97750000D01*
X98205543Y-97750000D01*
X98185387Y-97391093D01*
X98125173Y-97036700D01*
X98025659Y-96691276D01*
X97888094Y-96359167D01*
X97714211Y-96044548D01*
X97506194Y-95751377D01*
X97266661Y-95483339D01*
X96998623Y-95243806D01*
X96705452Y-95035789D01*
X96705447Y-95035786D01*
X96705444Y-95035784D01*
X96417257Y-94876510D01*
X96390833Y-94861906D01*
X96390826Y-94861903D01*
X96390822Y-94861901D01*
X96058728Y-94724342D01*
X95713293Y-94624825D01*
X95358903Y-94564612D01*
X95000000Y-94544457D01*
X94641096Y-94564612D01*
X94286706Y-94624825D01*
X93941271Y-94724342D01*
X93609177Y-94861901D01*
X93609154Y-94861913D01*
X93294555Y-95035784D01*
X93001373Y-95243809D01*
X92733339Y-95483339D01*
X92493809Y-95751373D01*
X92285784Y-96044555D01*
X92111913Y-96359154D01*
X92111901Y-96359177D01*
X91974342Y-96691271D01*
X91874825Y-97036706D01*
X91814612Y-97391096D01*
X91794457Y-97750000D01*
X88050541Y-97750000D01*
X88050541Y-84750000D01*
X104794457Y-84750000D01*
X104814612Y-85108903D01*
X104874825Y-85463293D01*
X104974342Y-85808728D01*
X105093407Y-86096173D01*
X105111906Y-86140833D01*
X105111913Y-86140845D01*
X105285784Y-86455444D01*
X105285786Y-86455447D01*
X105285789Y-86455452D01*
X105493806Y-86748623D01*
X105733339Y-87016661D01*
X106001377Y-87256194D01*
X106294548Y-87464211D01*
X106609167Y-87638094D01*
X106941276Y-87775659D01*
X107286700Y-87875173D01*
X107641093Y-87935387D01*
X108000000Y-87955543D01*
X108358907Y-87935387D01*
X108713300Y-87875173D01*
X109058724Y-87775659D01*
X109390833Y-87638094D01*
X109705452Y-87464211D01*
X109998623Y-87256194D01*
X110266661Y-87016661D01*
X110506194Y-86748623D01*
X110714211Y-86455452D01*
X110888094Y-86140833D01*
X111025659Y-85808724D01*
X111125173Y-85463300D01*
X111185387Y-85108907D01*
X111205543Y-84750000D01*
X111185387Y-84391093D01*
X111125173Y-84036700D01*
X111025659Y-83691276D01*
X110888094Y-83359167D01*
X110714211Y-83044548D01*
X110506194Y-82751377D01*
X110266661Y-82483339D01*
X109998623Y-82243806D01*
X109705452Y-82035789D01*
X109705447Y-82035786D01*
X109705444Y-82035784D01*
X109417257Y-81876510D01*
X109390833Y-81861906D01*
X109390826Y-81861903D01*
X109390822Y-81861901D01*
X109058728Y-81724342D01*
X108713293Y-81624825D01*
X108358903Y-81564612D01*
X108000000Y-81544457D01*
X107641096Y-81564612D01*
X107286706Y-81624825D01*
X106941271Y-81724342D01*
X106609177Y-81861901D01*
X106609154Y-81861913D01*
X106294555Y-82035784D01*
X106001373Y-82243809D01*
X105733339Y-82483339D01*
X105493809Y-82751373D01*
X105285784Y-83044555D01*
X105111913Y-83359154D01*
X105111901Y-83359177D01*
X104974342Y-83691271D01*
X104874825Y-84036706D01*
X104814612Y-84391096D01*
X104794457Y-84750000D01*
X88050541Y-84750000D01*
X88050541Y-63750007D01*
X104294429Y-63750007D01*
X104314727Y-64137329D01*
X104375404Y-64520430D01*
X104475794Y-64895090D01*
X104614789Y-65257187D01*
X104614791Y-65257191D01*
X104790875Y-65602776D01*
X104790879Y-65602783D01*
X104790881Y-65602786D01*
X105002130Y-65928080D01*
X105002135Y-65928086D01*
X105002137Y-65928089D01*
X105246216Y-66229502D01*
X105246229Y-66229517D01*
X105520482Y-66503770D01*
X105520497Y-66503783D01*
X105821910Y-66747862D01*
X105821920Y-66747870D01*
X106147214Y-66959119D01*
X106147219Y-66959121D01*
X106147223Y-66959124D01*
X106492808Y-67135208D01*
X106492812Y-67135210D01*
X106854909Y-67274205D01*
X106854914Y-67274206D01*
X106854916Y-67274207D01*
X107229568Y-67374595D01*
X107612662Y-67435271D01*
X107612664Y-67435271D01*
X107612670Y-67435272D01*
X107999993Y-67455571D01*
X108000000Y-67455571D01*
X108000007Y-67455571D01*
X108387329Y-67435272D01*
X108387333Y-67435271D01*
X108387338Y-67435271D01*
X108770432Y-67374595D01*
X109145084Y-67274207D01*
X109145087Y-67274205D01*
X109145090Y-67274205D01*
X109507187Y-67135210D01*
X109507187Y-67135209D01*
X109507192Y-67135208D01*
X109852786Y-66959119D01*
X110178080Y-66747870D01*
X110479511Y-66503776D01*
X110753776Y-66229511D01*
X110997870Y-65928080D01*
X111209119Y-65602786D01*
X111385208Y-65257192D01*
X111524207Y-64895084D01*
X111624595Y-64520432D01*
X111685271Y-64137338D01*
X111685271Y-64137333D01*
X111685272Y-64137329D01*
X111705571Y-63750007D01*
X111705571Y-63749992D01*
X111685272Y-63362670D01*
X111624595Y-62979569D01*
X111524205Y-62604909D01*
X111385210Y-62242812D01*
X111385208Y-62242808D01*
X111209124Y-61897224D01*
X111209122Y-61897221D01*
X111209119Y-61897215D01*
X110997870Y-61571920D01*
X110997863Y-61571910D01*
X110753783Y-61270497D01*
X110753770Y-61270482D01*
X110479517Y-60996229D01*
X110479502Y-60996216D01*
X110178089Y-60752137D01*
X110178086Y-60752135D01*
X110178080Y-60752130D01*
X109852786Y-60540881D01*
X109852783Y-60540879D01*
X109852776Y-60540875D01*
X109507191Y-60364791D01*
X109507187Y-60364789D01*
X109145090Y-60225794D01*
X108770430Y-60125404D01*
X108387329Y-60064727D01*
X108000007Y-60044429D01*
X107999993Y-60044429D01*
X107612670Y-60064727D01*
X107229569Y-60125404D01*
X106854909Y-60225794D01*
X106492812Y-60364789D01*
X106492808Y-60364791D01*
X106147224Y-60540875D01*
X106147218Y-60540879D01*
X105821927Y-60752124D01*
X105821910Y-60752136D01*
X105520497Y-60996216D01*
X105520482Y-60996229D01*
X105246229Y-61270482D01*
X105246216Y-61270497D01*
X105002136Y-61571910D01*
X105002124Y-61571927D01*
X104790879Y-61897218D01*
X104790875Y-61897224D01*
X104614791Y-62242808D01*
X104614789Y-62242812D01*
X104475794Y-62604909D01*
X104375404Y-62979569D01*
X104314727Y-63362670D01*
X104294429Y-63749992D01*
X104294429Y-63750007D01*
X88050541Y-63750007D01*
X88050541Y-46600000D01*
X90494732Y-46600000D01*
X90513778Y-46854160D01*
X90570491Y-47102635D01*
X90663605Y-47339884D01*
X90663608Y-47339892D01*
X90791038Y-47560608D01*
X90949953Y-47759881D01*
X91087746Y-47887732D01*
X91136783Y-47933232D01*
X91136789Y-47933236D01*
X91347356Y-48076799D01*
X91347363Y-48076803D01*
X91347366Y-48076805D01*
X91394493Y-48099500D01*
X91576991Y-48187387D01*
X91577004Y-48187392D01*
X91820531Y-48262510D01*
X91820534Y-48262510D01*
X91820542Y-48262513D01*
X92072565Y-48300500D01*
X92072570Y-48300500D01*
X94827430Y-48300500D01*
X94827435Y-48300500D01*
X95079458Y-48262513D01*
X95079468Y-48262510D01*
X95322995Y-48187392D01*
X95322997Y-48187390D01*
X95323004Y-48187389D01*
X95552634Y-48076805D01*
X95763217Y-47933232D01*
X95950050Y-47759877D01*
X96108959Y-47560612D01*
X96236393Y-47339888D01*
X96329508Y-47102637D01*
X96386222Y-46854157D01*
X96405268Y-46600000D01*
X118734732Y-46600000D01*
X118753778Y-46854160D01*
X118810491Y-47102635D01*
X118903605Y-47339884D01*
X118903608Y-47339892D01*
X119031038Y-47560608D01*
X119189953Y-47759881D01*
X119327746Y-47887732D01*
X119376783Y-47933232D01*
X119376789Y-47933236D01*
X119587356Y-48076799D01*
X119587363Y-48076803D01*
X119587366Y-48076805D01*
X119634493Y-48099500D01*
X119816991Y-48187387D01*
X119817004Y-48187392D01*
X120060531Y-48262510D01*
X120060534Y-48262510D01*
X120060542Y-48262513D01*
X120312565Y-48300500D01*
X120312570Y-48300500D01*
X123067430Y-48300500D01*
X123067435Y-48300500D01*
X123319458Y-48262513D01*
X123319468Y-48262510D01*
X123562995Y-48187392D01*
X123562997Y-48187390D01*
X123563004Y-48187389D01*
X123792634Y-48076805D01*
X124003217Y-47933232D01*
X124190050Y-47759877D01*
X124348959Y-47560612D01*
X124476393Y-47339888D01*
X124569508Y-47102637D01*
X124626222Y-46854157D01*
X124645268Y-46600000D01*
X124626222Y-46345843D01*
X124569508Y-46097363D01*
X124476393Y-45860112D01*
X124476392Y-45860111D01*
X124476391Y-45860107D01*
X124348961Y-45639391D01*
X124269454Y-45539693D01*
X124190050Y-45440123D01*
X124190049Y-45440122D01*
X124190046Y-45440118D01*
X124003222Y-45266773D01*
X124003217Y-45266768D01*
X124003210Y-45266763D01*
X123792643Y-45123200D01*
X123792636Y-45123196D01*
X123563008Y-45012612D01*
X123562995Y-45012607D01*
X123319468Y-44937489D01*
X123319458Y-44937487D01*
X123067435Y-44899500D01*
X122955917Y-44899500D01*
X120466929Y-44899500D01*
X120440000Y-44899500D01*
X120312565Y-44899500D01*
X120102545Y-44931155D01*
X120060541Y-44937487D01*
X120060531Y-44937489D01*
X119817004Y-45012607D01*
X119816991Y-45012612D01*
X119587363Y-45123196D01*
X119587356Y-45123200D01*
X119376789Y-45266763D01*
X119376777Y-45266773D01*
X119189953Y-45440118D01*
X119031038Y-45639391D01*
X118903608Y-45860107D01*
X118903605Y-45860115D01*
X118810491Y-46097364D01*
X118753778Y-46345839D01*
X118734732Y-46600000D01*
X96405268Y-46600000D01*
X96386222Y-46345843D01*
X96329508Y-46097363D01*
X96236393Y-45860112D01*
X96236392Y-45860111D01*
X96236391Y-45860107D01*
X96108961Y-45639391D01*
X96029454Y-45539693D01*
X95950050Y-45440123D01*
X95950049Y-45440122D01*
X95950046Y-45440118D01*
X95763222Y-45266773D01*
X95763217Y-45266768D01*
X95763210Y-45266763D01*
X95552643Y-45123200D01*
X95552636Y-45123196D01*
X95323008Y-45012612D01*
X95322995Y-45012607D01*
X95079468Y-44937489D01*
X95079458Y-44937487D01*
X94827435Y-44899500D01*
X94715917Y-44899500D01*
X92226929Y-44899500D01*
X92200000Y-44899500D01*
X92072565Y-44899500D01*
X91862545Y-44931155D01*
X91820541Y-44937487D01*
X91820531Y-44937489D01*
X91577004Y-45012607D01*
X91576991Y-45012612D01*
X91347363Y-45123196D01*
X91347356Y-45123200D01*
X91136789Y-45266763D01*
X91136777Y-45266773D01*
X90949953Y-45440118D01*
X90791038Y-45639391D01*
X90663608Y-45860107D01*
X90663605Y-45860115D01*
X90570491Y-46097364D01*
X90513778Y-46345839D01*
X90494732Y-46600000D01*
X88050541Y-46600000D01*
X88050541Y-43824483D01*
X88070543Y-43756362D01*
X88124199Y-43709869D01*
X88176541Y-43698483D01*
X127723537Y-43698483D01*
X127791658Y-43718485D01*
G37*
%TD.AperFunction*%
M02*
