%TF.GenerationSoftware,KiCad,Pcbnew,7.0.8*%
%TF.CreationDate,2023-10-24T12:55:40-07:00*%
%TF.ProjectId,VCO Front Plate,56434f20-4672-46f6-9e74-20506c617465,rev?*%
%TF.SameCoordinates,Original*%
%TF.FileFunction,Drillmap*%
%TF.FilePolarity,Positive*%
%FSLAX45Y45*%
G04 Gerber Fmt 4.5, Leading zero omitted, Abs format (unit mm)*
G04 Created by KiCad (PCBNEW 7.0.8) date 2023-10-24 12:55:40*
%MOMM*%
%LPD*%
G01*
G04 APERTURE LIST*
%ADD10C,0.050000*%
%ADD11C,0.200000*%
G04 APERTURE END LIST*
D10*
X9293000Y-16750000D02*
G75*
G03*
X9293000Y-17070000I0J-160000D01*
G01*
X9293000Y-17070000D02*
X9543000Y-17070000D01*
X9293000Y-16750000D02*
X9543000Y-16750000D01*
X9543000Y-17070000D02*
G75*
G03*
X9543000Y-16750000I0J160000D01*
G01*
X12045000Y-16749000D02*
X12295000Y-16749000D01*
X12045000Y-17069000D02*
X12295000Y-17069000D01*
X12045000Y-16749000D02*
G75*
G03*
X12045000Y-17069000I0J-160000D01*
G01*
X12295000Y-17069000D02*
G75*
G03*
X12295000Y-16749000I0J160000D01*
G01*
X12044000Y-4500000D02*
X12294000Y-4500000D01*
X12294000Y-4820000D02*
G75*
G03*
X12294000Y-4500000I0J160000D01*
G01*
X12044000Y-4820000D02*
X12294000Y-4820000D01*
X12044000Y-4500000D02*
G75*
G03*
X12044000Y-4820000I0J-160000D01*
G01*
X9470000Y-4820000D02*
G75*
G03*
X9470000Y-4500000I0J160000D01*
G01*
X9220000Y-4820000D02*
X9470000Y-4820000D01*
X9220000Y-4500000D02*
X9470000Y-4500000D01*
X9220000Y-4500000D02*
G75*
G03*
X9220000Y-4820000I0J-160000D01*
G01*
D11*
X8795004Y-17209798D02*
X12795004Y-17209798D01*
X8795004Y-4360000D02*
X8795004Y-17209798D01*
X12411999Y-13408000D02*
G75*
G03*
X12411999Y-13408000I-309999J0D01*
G01*
X8795004Y-4359798D02*
X12795004Y-4359798D01*
X9805002Y-15113000D02*
G75*
G03*
X9805002Y-15113000I-309999J0D01*
G01*
X9809999Y-11853000D02*
G75*
G03*
X9809999Y-11853000I-309999J0D01*
G01*
X9809999Y-13408000D02*
G75*
G03*
X9809999Y-13408000I-309999J0D01*
G01*
X12409999Y-11853000D02*
G75*
G03*
X12409999Y-11853000I-309999J0D01*
G01*
X11110000Y-8475000D02*
G75*
G03*
X11110000Y-8475000I-310000J0D01*
G01*
X12410000Y-9775000D02*
G75*
G03*
X12410000Y-9775000I-310000J0D01*
G01*
X9810000Y-9775000D02*
G75*
G03*
X9810000Y-9775000I-310000J0D01*
G01*
X12795004Y-4359798D02*
X12795004Y-17209798D01*
X11159999Y-6375000D02*
G75*
G03*
X11159999Y-6375000I-359999J0D01*
G01*
X8795004Y-4359798D02*
X8795004Y-4359798D01*
X12406997Y-15117000D02*
G75*
G03*
X12406997Y-15117000I-309999J0D01*
G01*
X11104999Y-15113000D02*
G75*
G03*
X11104999Y-15113000I-309999J0D01*
G01*
X9045781Y-17531282D02*
X9045781Y-17331282D01*
X9045781Y-17331282D02*
X9093400Y-17331282D01*
X9093400Y-17331282D02*
X9121971Y-17340806D01*
X9121971Y-17340806D02*
X9141019Y-17359853D01*
X9141019Y-17359853D02*
X9150543Y-17378901D01*
X9150543Y-17378901D02*
X9160067Y-17416996D01*
X9160067Y-17416996D02*
X9160067Y-17445567D01*
X9160067Y-17445567D02*
X9150543Y-17483663D01*
X9150543Y-17483663D02*
X9141019Y-17502710D01*
X9141019Y-17502710D02*
X9121971Y-17521758D01*
X9121971Y-17521758D02*
X9093400Y-17531282D01*
X9093400Y-17531282D02*
X9045781Y-17531282D01*
X9245781Y-17531282D02*
X9245781Y-17397948D01*
X9245781Y-17436044D02*
X9255305Y-17416996D01*
X9255305Y-17416996D02*
X9264829Y-17407472D01*
X9264829Y-17407472D02*
X9283876Y-17397948D01*
X9283876Y-17397948D02*
X9302924Y-17397948D01*
X9369590Y-17531282D02*
X9369590Y-17397948D01*
X9369590Y-17331282D02*
X9360067Y-17340806D01*
X9360067Y-17340806D02*
X9369590Y-17350329D01*
X9369590Y-17350329D02*
X9379114Y-17340806D01*
X9379114Y-17340806D02*
X9369590Y-17331282D01*
X9369590Y-17331282D02*
X9369590Y-17350329D01*
X9493400Y-17531282D02*
X9474352Y-17521758D01*
X9474352Y-17521758D02*
X9464829Y-17502710D01*
X9464829Y-17502710D02*
X9464829Y-17331282D01*
X9598162Y-17531282D02*
X9579114Y-17521758D01*
X9579114Y-17521758D02*
X9569590Y-17502710D01*
X9569590Y-17502710D02*
X9569590Y-17331282D01*
X9826733Y-17531282D02*
X9826733Y-17331282D01*
X9826733Y-17331282D02*
X9893400Y-17474139D01*
X9893400Y-17474139D02*
X9960067Y-17331282D01*
X9960067Y-17331282D02*
X9960067Y-17531282D01*
X10141019Y-17531282D02*
X10141019Y-17426520D01*
X10141019Y-17426520D02*
X10131495Y-17407472D01*
X10131495Y-17407472D02*
X10112448Y-17397948D01*
X10112448Y-17397948D02*
X10074352Y-17397948D01*
X10074352Y-17397948D02*
X10055305Y-17407472D01*
X10141019Y-17521758D02*
X10121971Y-17531282D01*
X10121971Y-17531282D02*
X10074352Y-17531282D01*
X10074352Y-17531282D02*
X10055305Y-17521758D01*
X10055305Y-17521758D02*
X10045781Y-17502710D01*
X10045781Y-17502710D02*
X10045781Y-17483663D01*
X10045781Y-17483663D02*
X10055305Y-17464615D01*
X10055305Y-17464615D02*
X10074352Y-17455091D01*
X10074352Y-17455091D02*
X10121971Y-17455091D01*
X10121971Y-17455091D02*
X10141019Y-17445567D01*
X10236257Y-17397948D02*
X10236257Y-17597948D01*
X10236257Y-17407472D02*
X10255305Y-17397948D01*
X10255305Y-17397948D02*
X10293400Y-17397948D01*
X10293400Y-17397948D02*
X10312448Y-17407472D01*
X10312448Y-17407472D02*
X10321971Y-17416996D01*
X10321971Y-17416996D02*
X10331495Y-17436044D01*
X10331495Y-17436044D02*
X10331495Y-17493186D01*
X10331495Y-17493186D02*
X10321971Y-17512234D01*
X10321971Y-17512234D02*
X10312448Y-17521758D01*
X10312448Y-17521758D02*
X10293400Y-17531282D01*
X10293400Y-17531282D02*
X10255305Y-17531282D01*
X10255305Y-17531282D02*
X10236257Y-17521758D01*
X10417210Y-17512234D02*
X10426733Y-17521758D01*
X10426733Y-17521758D02*
X10417210Y-17531282D01*
X10417210Y-17531282D02*
X10407686Y-17521758D01*
X10407686Y-17521758D02*
X10417210Y-17512234D01*
X10417210Y-17512234D02*
X10417210Y-17531282D01*
X10417210Y-17407472D02*
X10426733Y-17416996D01*
X10426733Y-17416996D02*
X10417210Y-17426520D01*
X10417210Y-17426520D02*
X10407686Y-17416996D01*
X10407686Y-17416996D02*
X10417210Y-17407472D01*
X10417210Y-17407472D02*
X10417210Y-17426520D01*
M02*
