%TF.GenerationSoftware,KiCad,Pcbnew,7.0.8*%
%TF.CreationDate,2023-10-24T12:55:46-07:00*%
%TF.ProjectId,VCO Front Plate,56434f20-4672-46f6-9e74-20506c617465,rev?*%
%TF.SameCoordinates,Original*%
%TF.FileFunction,Legend,Bot*%
%TF.FilePolarity,Positive*%
%FSLAX46Y46*%
G04 Gerber Fmt 4.6, Leading zero omitted, Abs format (unit mm)*
G04 Created by KiCad (PCBNEW 7.0.8) date 2023-10-24 12:55:46*
%MOMM*%
%LPD*%
G01*
G04 APERTURE LIST*
%ADD10C,0.300000*%
G04 APERTURE END LIST*
D10*
X115592858Y-101263328D02*
X115592858Y-99763328D01*
X115592858Y-99763328D02*
X115092858Y-100834757D01*
X115092858Y-100834757D02*
X114592858Y-99763328D01*
X114592858Y-99763328D02*
X114592858Y-101263328D01*
X113592857Y-99763328D02*
X113307143Y-99763328D01*
X113307143Y-99763328D02*
X113164286Y-99834757D01*
X113164286Y-99834757D02*
X113021429Y-99977614D01*
X113021429Y-99977614D02*
X112950000Y-100263328D01*
X112950000Y-100263328D02*
X112950000Y-100763328D01*
X112950000Y-100763328D02*
X113021429Y-101049042D01*
X113021429Y-101049042D02*
X113164286Y-101191900D01*
X113164286Y-101191900D02*
X113307143Y-101263328D01*
X113307143Y-101263328D02*
X113592857Y-101263328D01*
X113592857Y-101263328D02*
X113735715Y-101191900D01*
X113735715Y-101191900D02*
X113878572Y-101049042D01*
X113878572Y-101049042D02*
X113950000Y-100763328D01*
X113950000Y-100763328D02*
X113950000Y-100263328D01*
X113950000Y-100263328D02*
X113878572Y-99977614D01*
X113878572Y-99977614D02*
X113735715Y-99834757D01*
X113735715Y-99834757D02*
X113592857Y-99763328D01*
X112021428Y-99763328D02*
X111735714Y-99763328D01*
X111735714Y-99763328D02*
X111592857Y-99834757D01*
X111592857Y-99834757D02*
X111450000Y-99977614D01*
X111450000Y-99977614D02*
X111378571Y-100263328D01*
X111378571Y-100263328D02*
X111378571Y-100763328D01*
X111378571Y-100763328D02*
X111450000Y-101049042D01*
X111450000Y-101049042D02*
X111592857Y-101191900D01*
X111592857Y-101191900D02*
X111735714Y-101263328D01*
X111735714Y-101263328D02*
X112021428Y-101263328D01*
X112021428Y-101263328D02*
X112164286Y-101191900D01*
X112164286Y-101191900D02*
X112307143Y-101049042D01*
X112307143Y-101049042D02*
X112378571Y-100763328D01*
X112378571Y-100763328D02*
X112378571Y-100263328D01*
X112378571Y-100263328D02*
X112307143Y-99977614D01*
X112307143Y-99977614D02*
X112164286Y-99834757D01*
X112164286Y-99834757D02*
X112021428Y-99763328D01*
X110735714Y-101263328D02*
X110735714Y-99763328D01*
X110735714Y-99763328D02*
X109878571Y-101263328D01*
X109878571Y-101263328D02*
X109878571Y-99763328D01*
X107521428Y-100477614D02*
X108021428Y-100477614D01*
X108021428Y-101263328D02*
X108021428Y-99763328D01*
X108021428Y-99763328D02*
X107307142Y-99763328D01*
X105878571Y-101263328D02*
X106378571Y-100549042D01*
X106735714Y-101263328D02*
X106735714Y-99763328D01*
X106735714Y-99763328D02*
X106164285Y-99763328D01*
X106164285Y-99763328D02*
X106021428Y-99834757D01*
X106021428Y-99834757D02*
X105949999Y-99906185D01*
X105949999Y-99906185D02*
X105878571Y-100049042D01*
X105878571Y-100049042D02*
X105878571Y-100263328D01*
X105878571Y-100263328D02*
X105949999Y-100406185D01*
X105949999Y-100406185D02*
X106021428Y-100477614D01*
X106021428Y-100477614D02*
X106164285Y-100549042D01*
X106164285Y-100549042D02*
X106735714Y-100549042D01*
X105235714Y-101263328D02*
X105235714Y-99763328D01*
X104521428Y-100477614D02*
X104021428Y-100477614D01*
X103807142Y-101263328D02*
X104521428Y-101263328D01*
X104521428Y-101263328D02*
X104521428Y-99763328D01*
X104521428Y-99763328D02*
X103807142Y-99763328D01*
X103164285Y-101263328D02*
X103164285Y-99763328D01*
X103164285Y-99763328D02*
X102307142Y-101263328D01*
X102307142Y-101263328D02*
X102307142Y-99763328D01*
X101592856Y-101263328D02*
X101592856Y-99763328D01*
X101592856Y-99763328D02*
X101235713Y-99763328D01*
X101235713Y-99763328D02*
X101021427Y-99834757D01*
X101021427Y-99834757D02*
X100878570Y-99977614D01*
X100878570Y-99977614D02*
X100807141Y-100120471D01*
X100807141Y-100120471D02*
X100735713Y-100406185D01*
X100735713Y-100406185D02*
X100735713Y-100620471D01*
X100735713Y-100620471D02*
X100807141Y-100906185D01*
X100807141Y-100906185D02*
X100878570Y-101049042D01*
X100878570Y-101049042D02*
X101021427Y-101191900D01*
X101021427Y-101191900D02*
X101235713Y-101263328D01*
X101235713Y-101263328D02*
X101592856Y-101263328D01*
X117807142Y-103606900D02*
X117592857Y-103678328D01*
X117592857Y-103678328D02*
X117235714Y-103678328D01*
X117235714Y-103678328D02*
X117092857Y-103606900D01*
X117092857Y-103606900D02*
X117021428Y-103535471D01*
X117021428Y-103535471D02*
X116949999Y-103392614D01*
X116949999Y-103392614D02*
X116949999Y-103249757D01*
X116949999Y-103249757D02*
X117021428Y-103106900D01*
X117021428Y-103106900D02*
X117092857Y-103035471D01*
X117092857Y-103035471D02*
X117235714Y-102964042D01*
X117235714Y-102964042D02*
X117521428Y-102892614D01*
X117521428Y-102892614D02*
X117664285Y-102821185D01*
X117664285Y-102821185D02*
X117735714Y-102749757D01*
X117735714Y-102749757D02*
X117807142Y-102606900D01*
X117807142Y-102606900D02*
X117807142Y-102464042D01*
X117807142Y-102464042D02*
X117735714Y-102321185D01*
X117735714Y-102321185D02*
X117664285Y-102249757D01*
X117664285Y-102249757D02*
X117521428Y-102178328D01*
X117521428Y-102178328D02*
X117164285Y-102178328D01*
X117164285Y-102178328D02*
X116949999Y-102249757D01*
X116378571Y-103249757D02*
X115664286Y-103249757D01*
X116521428Y-103678328D02*
X116021428Y-102178328D01*
X116021428Y-102178328D02*
X115521428Y-103678328D01*
X114164286Y-103535471D02*
X114235714Y-103606900D01*
X114235714Y-103606900D02*
X114450000Y-103678328D01*
X114450000Y-103678328D02*
X114592857Y-103678328D01*
X114592857Y-103678328D02*
X114807143Y-103606900D01*
X114807143Y-103606900D02*
X114950000Y-103464042D01*
X114950000Y-103464042D02*
X115021429Y-103321185D01*
X115021429Y-103321185D02*
X115092857Y-103035471D01*
X115092857Y-103035471D02*
X115092857Y-102821185D01*
X115092857Y-102821185D02*
X115021429Y-102535471D01*
X115021429Y-102535471D02*
X114950000Y-102392614D01*
X114950000Y-102392614D02*
X114807143Y-102249757D01*
X114807143Y-102249757D02*
X114592857Y-102178328D01*
X114592857Y-102178328D02*
X114450000Y-102178328D01*
X114450000Y-102178328D02*
X114235714Y-102249757D01*
X114235714Y-102249757D02*
X114164286Y-102321185D01*
X113521429Y-103678328D02*
X113521429Y-102178328D01*
X112664286Y-103678328D02*
X113307143Y-102821185D01*
X112664286Y-102178328D02*
X113521429Y-103035471D01*
X110164286Y-103678328D02*
X110878572Y-103678328D01*
X110878572Y-103678328D02*
X110878572Y-102178328D01*
X109664286Y-102178328D02*
X109664286Y-103392614D01*
X109664286Y-103392614D02*
X109592857Y-103535471D01*
X109592857Y-103535471D02*
X109521429Y-103606900D01*
X109521429Y-103606900D02*
X109378571Y-103678328D01*
X109378571Y-103678328D02*
X109092857Y-103678328D01*
X109092857Y-103678328D02*
X108950000Y-103606900D01*
X108950000Y-103606900D02*
X108878571Y-103535471D01*
X108878571Y-103535471D02*
X108807143Y-103392614D01*
X108807143Y-103392614D02*
X108807143Y-102178328D01*
X108092857Y-103678328D02*
X108092857Y-102178328D01*
X108092857Y-102178328D02*
X107235714Y-103678328D01*
X107235714Y-103678328D02*
X107235714Y-102178328D01*
X105664285Y-103535471D02*
X105735713Y-103606900D01*
X105735713Y-103606900D02*
X105949999Y-103678328D01*
X105949999Y-103678328D02*
X106092856Y-103678328D01*
X106092856Y-103678328D02*
X106307142Y-103606900D01*
X106307142Y-103606900D02*
X106449999Y-103464042D01*
X106449999Y-103464042D02*
X106521428Y-103321185D01*
X106521428Y-103321185D02*
X106592856Y-103035471D01*
X106592856Y-103035471D02*
X106592856Y-102821185D01*
X106592856Y-102821185D02*
X106521428Y-102535471D01*
X106521428Y-102535471D02*
X106449999Y-102392614D01*
X106449999Y-102392614D02*
X106307142Y-102249757D01*
X106307142Y-102249757D02*
X106092856Y-102178328D01*
X106092856Y-102178328D02*
X105949999Y-102178328D01*
X105949999Y-102178328D02*
X105735713Y-102249757D01*
X105735713Y-102249757D02*
X105664285Y-102321185D01*
X105021428Y-103678328D02*
X105021428Y-102178328D01*
X105021428Y-102892614D02*
X104164285Y-102892614D01*
X104164285Y-103678328D02*
X104164285Y-102178328D01*
X102521427Y-102178328D02*
X102021427Y-103678328D01*
X102021427Y-103678328D02*
X101521427Y-102178328D01*
X100164285Y-103535471D02*
X100235713Y-103606900D01*
X100235713Y-103606900D02*
X100449999Y-103678328D01*
X100449999Y-103678328D02*
X100592856Y-103678328D01*
X100592856Y-103678328D02*
X100807142Y-103606900D01*
X100807142Y-103606900D02*
X100949999Y-103464042D01*
X100949999Y-103464042D02*
X101021428Y-103321185D01*
X101021428Y-103321185D02*
X101092856Y-103035471D01*
X101092856Y-103035471D02*
X101092856Y-102821185D01*
X101092856Y-102821185D02*
X101021428Y-102535471D01*
X101021428Y-102535471D02*
X100949999Y-102392614D01*
X100949999Y-102392614D02*
X100807142Y-102249757D01*
X100807142Y-102249757D02*
X100592856Y-102178328D01*
X100592856Y-102178328D02*
X100449999Y-102178328D01*
X100449999Y-102178328D02*
X100235713Y-102249757D01*
X100235713Y-102249757D02*
X100164285Y-102321185D01*
X99235713Y-102178328D02*
X98949999Y-102178328D01*
X98949999Y-102178328D02*
X98807142Y-102249757D01*
X98807142Y-102249757D02*
X98664285Y-102392614D01*
X98664285Y-102392614D02*
X98592856Y-102678328D01*
X98592856Y-102678328D02*
X98592856Y-103178328D01*
X98592856Y-103178328D02*
X98664285Y-103464042D01*
X98664285Y-103464042D02*
X98807142Y-103606900D01*
X98807142Y-103606900D02*
X98949999Y-103678328D01*
X98949999Y-103678328D02*
X99235713Y-103678328D01*
X99235713Y-103678328D02*
X99378571Y-103606900D01*
X99378571Y-103606900D02*
X99521428Y-103464042D01*
X99521428Y-103464042D02*
X99592856Y-103178328D01*
X99592856Y-103178328D02*
X99592856Y-102678328D01*
X99592856Y-102678328D02*
X99521428Y-102392614D01*
X99521428Y-102392614D02*
X99378571Y-102249757D01*
X99378571Y-102249757D02*
X99235713Y-102178328D01*
X118271426Y-104593328D02*
X117771426Y-106093328D01*
X117771426Y-106093328D02*
X117271426Y-104593328D01*
X116199998Y-106021900D02*
X116342855Y-106093328D01*
X116342855Y-106093328D02*
X116628570Y-106093328D01*
X116628570Y-106093328D02*
X116771427Y-106021900D01*
X116771427Y-106021900D02*
X116842855Y-105879042D01*
X116842855Y-105879042D02*
X116842855Y-105307614D01*
X116842855Y-105307614D02*
X116771427Y-105164757D01*
X116771427Y-105164757D02*
X116628570Y-105093328D01*
X116628570Y-105093328D02*
X116342855Y-105093328D01*
X116342855Y-105093328D02*
X116199998Y-105164757D01*
X116199998Y-105164757D02*
X116128570Y-105307614D01*
X116128570Y-105307614D02*
X116128570Y-105450471D01*
X116128570Y-105450471D02*
X116842855Y-105593328D01*
X115485713Y-106093328D02*
X115485713Y-105093328D01*
X115485713Y-105379042D02*
X115414284Y-105236185D01*
X115414284Y-105236185D02*
X115342856Y-105164757D01*
X115342856Y-105164757D02*
X115199998Y-105093328D01*
X115199998Y-105093328D02*
X115057141Y-105093328D01*
X112628570Y-106093328D02*
X113485713Y-106093328D01*
X113057142Y-106093328D02*
X113057142Y-104593328D01*
X113057142Y-104593328D02*
X113199999Y-104807614D01*
X113199999Y-104807614D02*
X113342856Y-104950471D01*
X113342856Y-104950471D02*
X113485713Y-105021900D01*
X110342857Y-105307614D02*
X110842857Y-105307614D01*
X110842857Y-106093328D02*
X110842857Y-104593328D01*
X110842857Y-104593328D02*
X110128571Y-104593328D01*
X109557143Y-106093328D02*
X109557143Y-105093328D01*
X109557143Y-105379042D02*
X109485714Y-105236185D01*
X109485714Y-105236185D02*
X109414286Y-105164757D01*
X109414286Y-105164757D02*
X109271428Y-105093328D01*
X109271428Y-105093328D02*
X109128571Y-105093328D01*
X108414286Y-106093328D02*
X108557143Y-106021900D01*
X108557143Y-106021900D02*
X108628572Y-105950471D01*
X108628572Y-105950471D02*
X108700000Y-105807614D01*
X108700000Y-105807614D02*
X108700000Y-105379042D01*
X108700000Y-105379042D02*
X108628572Y-105236185D01*
X108628572Y-105236185D02*
X108557143Y-105164757D01*
X108557143Y-105164757D02*
X108414286Y-105093328D01*
X108414286Y-105093328D02*
X108200000Y-105093328D01*
X108200000Y-105093328D02*
X108057143Y-105164757D01*
X108057143Y-105164757D02*
X107985715Y-105236185D01*
X107985715Y-105236185D02*
X107914286Y-105379042D01*
X107914286Y-105379042D02*
X107914286Y-105807614D01*
X107914286Y-105807614D02*
X107985715Y-105950471D01*
X107985715Y-105950471D02*
X108057143Y-106021900D01*
X108057143Y-106021900D02*
X108200000Y-106093328D01*
X108200000Y-106093328D02*
X108414286Y-106093328D01*
X107271429Y-105093328D02*
X107271429Y-106093328D01*
X107271429Y-105236185D02*
X107200000Y-105164757D01*
X107200000Y-105164757D02*
X107057143Y-105093328D01*
X107057143Y-105093328D02*
X106842857Y-105093328D01*
X106842857Y-105093328D02*
X106700000Y-105164757D01*
X106700000Y-105164757D02*
X106628572Y-105307614D01*
X106628572Y-105307614D02*
X106628572Y-106093328D01*
X106128571Y-105093328D02*
X105557143Y-105093328D01*
X105914286Y-104593328D02*
X105914286Y-105879042D01*
X105914286Y-105879042D02*
X105842857Y-106021900D01*
X105842857Y-106021900D02*
X105700000Y-106093328D01*
X105700000Y-106093328D02*
X105557143Y-106093328D01*
X103914286Y-106093328D02*
X103914286Y-104593328D01*
X103914286Y-104593328D02*
X103342857Y-104593328D01*
X103342857Y-104593328D02*
X103200000Y-104664757D01*
X103200000Y-104664757D02*
X103128571Y-104736185D01*
X103128571Y-104736185D02*
X103057143Y-104879042D01*
X103057143Y-104879042D02*
X103057143Y-105093328D01*
X103057143Y-105093328D02*
X103128571Y-105236185D01*
X103128571Y-105236185D02*
X103200000Y-105307614D01*
X103200000Y-105307614D02*
X103342857Y-105379042D01*
X103342857Y-105379042D02*
X103914286Y-105379042D01*
X101771429Y-106093328D02*
X101771429Y-105307614D01*
X101771429Y-105307614D02*
X101842857Y-105164757D01*
X101842857Y-105164757D02*
X101985714Y-105093328D01*
X101985714Y-105093328D02*
X102271429Y-105093328D01*
X102271429Y-105093328D02*
X102414286Y-105164757D01*
X101771429Y-106021900D02*
X101914286Y-106093328D01*
X101914286Y-106093328D02*
X102271429Y-106093328D01*
X102271429Y-106093328D02*
X102414286Y-106021900D01*
X102414286Y-106021900D02*
X102485714Y-105879042D01*
X102485714Y-105879042D02*
X102485714Y-105736185D01*
X102485714Y-105736185D02*
X102414286Y-105593328D01*
X102414286Y-105593328D02*
X102271429Y-105521900D01*
X102271429Y-105521900D02*
X101914286Y-105521900D01*
X101914286Y-105521900D02*
X101771429Y-105450471D01*
X101057143Y-105093328D02*
X101057143Y-106093328D01*
X101057143Y-105236185D02*
X100985714Y-105164757D01*
X100985714Y-105164757D02*
X100842857Y-105093328D01*
X100842857Y-105093328D02*
X100628571Y-105093328D01*
X100628571Y-105093328D02*
X100485714Y-105164757D01*
X100485714Y-105164757D02*
X100414286Y-105307614D01*
X100414286Y-105307614D02*
X100414286Y-106093328D01*
X99128571Y-106021900D02*
X99271428Y-106093328D01*
X99271428Y-106093328D02*
X99557143Y-106093328D01*
X99557143Y-106093328D02*
X99700000Y-106021900D01*
X99700000Y-106021900D02*
X99771428Y-105879042D01*
X99771428Y-105879042D02*
X99771428Y-105307614D01*
X99771428Y-105307614D02*
X99700000Y-105164757D01*
X99700000Y-105164757D02*
X99557143Y-105093328D01*
X99557143Y-105093328D02*
X99271428Y-105093328D01*
X99271428Y-105093328D02*
X99128571Y-105164757D01*
X99128571Y-105164757D02*
X99057143Y-105307614D01*
X99057143Y-105307614D02*
X99057143Y-105450471D01*
X99057143Y-105450471D02*
X99771428Y-105593328D01*
X98200000Y-106093328D02*
X98342857Y-106021900D01*
X98342857Y-106021900D02*
X98414286Y-105879042D01*
X98414286Y-105879042D02*
X98414286Y-104593328D01*
M02*
